<svg width="560" height="680" viewBox="0 0 560 680" fill="none" xmlns="http://www.w3.org/2000/svg">
  <rect width="560" height="680" rx="40" fill="#07131F"/>
  <rect x="18" y="18" width="524" height="644" rx="30" stroke="url(#paint0_linear)" stroke-opacity="0.45" stroke-width="2"/>
  <circle cx="280" cy="250" r="120" fill="url(#paint1_radial)" fill-opacity="0.95"/>
  <path d="M279.5 156C235.593 156 200 191.593 200 235.5C200 279.407 235.593 315 279.5 315C323.407 315 359 279.407 359 235.5C359 191.593 323.407 156 279.5 156Z" fill="#0A2032"/>
  <path d="M280 334C203.232 334 141 396.232 141 473V506H419V473C419 396.232 356.768 334 280 334Z" fill="#0A2032"/>
  <rect x="92" y="548" width="376" height="16" rx="8" fill="#0F2F47"/>
  <rect x="130" y="584" width="300" height="12" rx="6" fill="#0D2740"/>
  <path d="M56 104H188" stroke="#68D8FF" stroke-opacity="0.45" stroke-width="2" stroke-linecap="round"/>
  <path d="M372 104H504" stroke="#85F7C8" stroke-opacity="0.45" stroke-width="2" stroke-linecap="round"/>
  <path d="M56 134H132" stroke="#8E9CFF" stroke-opacity="0.45" stroke-width="2" stroke-linecap="round"/>
  <path d="M428 134H504" stroke="#68D8FF" stroke-opacity="0.45" stroke-width="2" stroke-linecap="round"/>
  <defs>
    <linearGradient id="paint0_linear" x1="44" y1="42" x2="501" y2="633" gradientUnits="userSpaceOnUse">
      <stop stop-color="#68D8FF"/>
      <stop offset="1" stop-color="#85F7C8"/>
    </linearGradient>
    <radialGradient id="paint1_radial" cx="0" cy="0" r="1" gradientUnits="userSpaceOnUse" gradientTransform="translate(280 250) rotate(90) scale(170)">
      <stop stop-color="#68D8FF" stop-opacity="0.55"/>
      <stop offset="1" stop-color="#07131F" stop-opacity="0"/>
    </radialGradient>
  </defs>
</svg>
