<svg width="720" height="420" viewBox="0 0 720 420" fill="none" xmlns="http://www.w3.org/2000/svg">
  <rect width="720" height="420" rx="28" fill="#07131F"/>
  <rect x="24" y="24" width="672" height="372" rx="18" stroke="#85F7C8" stroke-opacity="0.22" stroke-width="2"/>
  <rect x="58" y="66" width="160" height="288" rx="18" fill="#0B1D2C"/>
  <rect x="238" y="66" width="428" height="132" rx="18" fill="#0B1D2C"/>
  <rect x="238" y="220" width="202" height="134" rx="18" fill="#0B1D2C"/>
  <rect x="464" y="220" width="202" height="134" rx="18" fill="#0B1D2C"/>
  <rect x="82" y="102" width="112" height="18" rx="9" fill="#12344E"/>
  <rect x="82" y="134" width="88" height="12" rx="6" fill="#17415A"/>
  <rect x="82" y="166" width="84" height="12" rx="6" fill="#17415A"/>
  <rect x="82" y="198" width="102" height="12" rx="6" fill="#17415A"/>
  <rect x="82" y="230" width="68" height="12" rx="6" fill="#17415A"/>
  <circle cx="128" cy="294" r="26" fill="#122E45"/>
  <path d="M128 280L144 310H112L128 280Z" fill="#85F7C8"/>
  <path d="M272 142H634" stroke="#193B55" stroke-width="18" stroke-linecap="round"/>
  <path d="M272 142H436" stroke="#68D8FF" stroke-width="18" stroke-linecap="round"/>
  <path d="M272 172H634" stroke="#193B55" stroke-width="18" stroke-linecap="round"/>
  <path d="M272 172H564" stroke="#8E9CFF" stroke-width="18" stroke-linecap="round"/>
  <path d="M272 262H406" stroke="#193B55" stroke-width="16" stroke-linecap="round"/>
  <path d="M272 262H362" stroke="#85F7C8" stroke-width="16" stroke-linecap="round"/>
  <path d="M272 292H406" stroke="#193B55" stroke-width="16" stroke-linecap="round"/>
  <path d="M272 292H390" stroke="#68D8FF" stroke-width="16" stroke-linecap="round"/>
  <path d="M272 322H406" stroke="#193B55" stroke-width="16" stroke-linecap="round"/>
  <path d="M272 322H330" stroke="#8E9CFF" stroke-width="16" stroke-linecap="round"/>
  <circle cx="565" cy="288" r="42" fill="#102C42"/>
  <circle cx="565" cy="288" r="24" fill="#85F7C8"/>
  <path d="M565 246V330" stroke="#68D8FF" stroke-width="2" stroke-dasharray="6 6"/>
  <path d="M523 288H607" stroke="#68D8FF" stroke-width="2" stroke-dasharray="6 6"/>
</svg>
