<svg width="720" height="420" viewBox="0 0 720 420" fill="none" xmlns="http://www.w3.org/2000/svg">
  <rect width="720" height="420" rx="28" fill="#07131F"/>
  <rect x="24" y="24" width="672" height="372" rx="18" stroke="#68D8FF" stroke-opacity="0.22" stroke-width="2"/>
  <rect x="54" y="68" width="216" height="120" rx="18" fill="#0B1D2C"/>
  <rect x="288" y="68" width="378" height="120" rx="18" fill="#0B1D2C"/>
  <rect x="54" y="210" width="282" height="152" rx="18" fill="#0B1D2C"/>
  <rect x="356" y="210" width="310" height="152" rx="18" fill="#0B1D2C"/>
  <circle cx="118" cy="128" r="32" fill="#102C42"/>
  <path d="M118 104L126 120H144L130 130L136 146L118 136L100 146L106 130L92 120H110L118 104Z" fill="#85F7C8"/>
  <rect x="168" y="104" width="76" height="10" rx="5" fill="#17415A"/>
  <rect x="168" y="126" width="56" height="10" rx="5" fill="#12344E"/>
  <rect x="168" y="148" width="40" height="10" rx="5" fill="#12344E"/>
  <path d="M318 146C356 112 401 99 443 104C485 109 524 129 560 151C596 173 631 196 660 190" stroke="#68D8FF" stroke-width="8" stroke-linecap="round"/>
  <path d="M318 160C346 150 370 149 395 155C420 161 446 176 475 192C504 208 536 224 584 230" stroke="#85F7C8" stroke-width="8" stroke-linecap="round"/>
  <rect x="80" y="244" width="42" height="88" rx="12" fill="#12344E"/>
  <rect x="136" y="268" width="42" height="64" rx="12" fill="#17415A"/>
  <rect x="192" y="228" width="42" height="104" rx="12" fill="#68D8FF"/>
  <rect x="248" y="254" width="42" height="78" rx="12" fill="#85F7C8"/>
  <circle cx="432" cy="286" r="56" stroke="#68D8FF" stroke-opacity="0.35" stroke-width="18"/>
  <path d="M432 230A56 56 0 0 1 480.497 258L432 286V230Z" fill="#68D8FF"/>
  <path d="M480.497 258A56 56 0 0 1 457.688 334.497L432 286L480.497 258Z" fill="#85F7C8"/>
  <path d="M457.688 334.497A56 56 0 0 1 379.311 320.497L432 286L457.688 334.497Z" fill="#8E9CFF"/>
</svg>
